<?xml version="1.0" standalone="no"?>
<!DOCTYPE svg PUBLIC "-//W3C//DTD SVG 20010904//EN"
 "http://www.w3.org/TR/2001/REC-SVG-20010904/DTD/svg10.dtd">
<svg version="1.0" xmlns="http://www.w3.org/2000/svg"
 width="512.000000pt" height="512.000000pt" viewBox="0 0 512.000000 512.000000"
 preserveAspectRatio="xMidYMid meet">
<metadata>
Created by potrace 1.14, written by Peter Selinger 2001-2017
</metadata>
<g transform="translate(0.000000,512.000000) scale(0.100000,-0.100000)"
fill="#000000" stroke="none">
<path d="M105 5109 c-4 -5 -10 -7 -14 -4 -12 7 -70 -51 -81 -80 -6 -15 -9
-994 -9 -2468 l0 -2444 25 -36 c23 -35 61 -64 77 -59 4 1 7 -2 7 -8 0 -6 900
-9 2450 -9 1348 0 2450 3 2450 8 0 5 13 14 30 21 16 7 27 16 24 21 -3 5 -1 9
5 9 6 0 19 12 28 27 17 26 18 149 19 2473 0 2163 -1 2448 -15 2470 -24 40 -60
71 -93 80 -43 13 -4896 12 -4903 -1z"/>
</g>
</svg>
